<svg id="svg" version="1.1" width="400" height="400" viewBox="0 0 400 400" xmlns="http://www.w3.org/2000/svg" xmlns:xlink="http://www.w3.org/1999/xlink" ><g id="svgg"><path id="path0" d="M0.000 199.000 L 0.000 238.800 200.000 238.800 L 400.000 238.800 400.000 199.000 L 400.000 159.200 200.000 159.200 L 0.000 159.200 0.000 199.000 " stroke="none" fill="#ffffff" fill-rule="evenodd"></path><path id="path1" d="M0.000 79.200 L 0.000 158.400 200.000 158.400 L 400.000 158.400 400.000 79.200 L 400.000 0.000 200.000 0.000 L 0.000 0.000 0.000 79.200 M0.000 320.000 L 0.000 400.000 200.000 400.000 L 400.000 400.000 400.000 320.000 L 400.000 240.000 200.000 240.000 L 0.000 240.000 0.000 320.000 " stroke="none" fill="#9e3039" fill-rule="evenodd"></path><path id="path2" d="M99.900 239.900 C 154.955 239.956,245.045 239.956,300.100 239.900 C 355.155 239.844,310.110 239.798,200.000 239.798 C 89.890 239.798,44.845 239.844,99.900 239.900 " stroke="none" fill="#aa4a51" fill-rule="evenodd"></path><path id="path3" d="M99.900 158.700 C 154.955 158.756,245.045 158.756,300.100 158.700 C 355.155 158.644,310.110 158.598,200.000 158.598 C 89.890 158.598,44.845 158.644,99.900 158.700 M99.900 239.500 C 154.955 239.556,245.045 239.556,300.100 239.500 C 355.155 239.444,310.110 239.398,200.000 239.398 C 89.890 239.398,44.845 239.444,99.900 239.500 " stroke="none" fill="#c07a80" fill-rule="evenodd"></path><path id="path4" d="M99.900 159.100 C 154.955 159.156,245.045 159.156,300.100 159.100 C 355.155 159.044,310.110 158.998,200.000 158.998 C 89.890 158.998,44.845 159.044,99.900 159.100 M99.900 239.100 C 154.955 239.156,245.045 239.156,300.100 239.100 C 355.155 239.044,310.110 238.998,200.000 238.998 C 89.890 238.998,44.845 239.044,99.900 239.100 " stroke="none" fill="#e4c6c8" fill-rule="evenodd"></path></g></svg>